<?xml version="1.0" encoding="iso-8859-1"?>
<!-- Generator: Adobe Illustrator 19.0.0, SVG Export Plug-In . SVG Version: 6.00 Build 0)  -->
<svg version="1.1" id="Capa_1" xmlns="http://www.w3.org/2000/svg" xmlns:xlink="http://www.w3.org/1999/xlink" x="0px" y="0px"
	 viewBox="0 0 512 512" style="enable-background:new 0 0 512 512;background-color: transparent;" xml:space="preserve">
<path style="fill:#87DCFA;" d="M512,256c0,140.487-113.677,256-256,256C114.047,512,0,396.835,0,256C0,114.615,114.615,0,256,0
	C397.649,0,512,114.857,512,256z"/>
<path style="fill:#D29650;" d="M278.841,252.059v258.939c-5.91,0.516-11.884,0.843-17.91,0.948
	c-1.633,0.042-3.287,0.053-4.931,0.053c-7.701,0-15.318-0.337-22.841-1.011V252.059c0-12.558,10.283-22.841,22.841-22.841
	c1.264,0,2.507,0.105,3.719,0.306c4.804,0.79,9.103,3.097,12.411,6.406C276.27,240.069,278.841,245.78,278.841,252.059z"/>
<path style="fill:#E6B464;" d="M278.841,252.059v258.939c-5.91,0.516-11.884,0.843-17.91,0.948c-0.843-2.37-1.296-4.91-1.296-7.554
	v-272.92c0-0.653,0.032-1.306,0.084-1.949c4.804,0.79,9.103,3.097,12.411,6.406C276.27,240.069,278.841,245.78,278.841,252.059z"/>
<path style="fill:#F2C230;" d="M429.329,66.024l-23.146,61.379l-21.872,57.997H125.203L82.492,65.582
	c-4.867-13.686,2.107-27.929,14.318-33.313c3.255-1.443,6.88-2.255,10.767-2.255h296.856c3.034,0,5.921,0.506,8.576,1.401
	C426.716,36.062,434.828,51.454,429.329,66.024z"/>
<path style="fill:#FFEB50;" d="M429.329,66.024l-23.146,61.379H168.609l-34.725-97.389h270.549c3.034,0,5.921,0.506,8.576,1.401
	C426.716,36.062,434.828,51.454,429.329,66.024z"/>
<path style="fill:#FF563C;" d="M379.014,165.071H130.504c-10.105,0-17.243,9.897-14.046,19.477l23.809,71.292
	c2.013,6.041,7.663,10.105,14.034,10.105h201.306c6.395,0,12.069-4.1,14.058-10.177l18.83-57.343l4.577-13.936
	C396.22,174.907,389.094,165.071,379.014,165.071z"/>
<path style="fill:#FF7251;" d="M388.495,198.423H166.65c-10.105,0-17.231,9.897-14.034,19.488l16.035,48.033h186.956
	c6.395,0,12.069-4.1,14.058-10.177L388.495,198.423z"/>
<g>
	<path style="fill:#E3A600;" d="M263.911,133.941V30.016h-18.305v103.924c0,5.052,4.1,9.152,9.152,9.152
		C259.811,143.093,263.911,138.993,263.911,133.941z"/>
	<path style="fill:#E3A600;" d="M208.398,131.939L185.541,30.016h-18.769l23.772,105.925c1.11,4.931,6.004,8.03,10.935,6.931
		C206.409,141.763,209.508,136.87,208.398,131.939z"/>
	<path style="fill:#E3A600;" d="M151.311,130.866L115.432,30.016h-7.859c-3.88,0-7.505,0.806-10.763,2.258l37.245,104.729
		c1.696,4.76,6.931,7.248,11.691,5.552C150.517,140.872,153.007,135.637,151.311,130.866z"/>
	<path style="fill:#E3A600;" d="M342.745,30.016h-18.769L301.12,131.939c-1.11,4.931,1.989,9.824,6.92,10.935
		c4.931,1.098,9.824-2.002,10.935-6.931L342.745,30.016z"/>
	<path style="fill:#E3A600;" d="M413.012,31.42c-2.66-0.903-5.541-1.403-8.579-1.403h-10.349l-35.878,100.849
		c-1.696,4.771,0.793,10.007,5.565,11.691c4.759,1.696,9.995-0.793,11.691-5.552L413.012,31.42z"/>
</g>
<g>
	<path style="fill:#FFF5F5;" d="M458.841,175.85l4.265,27.727c0.413,2.688,2.536,4.788,5.227,5.175l29.93,4.301
		c7.065,1.015,7.065,11.214,0,12.228l-29.93,4.301c-2.692,0.387-4.814,2.487-5.227,5.175l-4.265,27.727
		c-1.075,6.984-11.136,6.984-12.211,0l-4.265-27.727c-0.413-2.688-2.536-4.788-5.227-5.175l-29.93-4.301
		c-7.065-1.015-7.065-11.214,0-12.228l29.93-4.301c2.692-0.387,4.814-2.487,5.227-5.175l4.265-27.727
		C447.706,168.866,457.767,168.866,458.841,175.85z"/>
	<path style="fill:#FFF5F5;" d="M54.08,225.795l3.356,21.821c0.326,2.116,1.995,3.769,4.113,4.073l23.555,3.384
		c5.56,0.799,5.56,8.824,0,9.624l-23.555,3.384c-2.118,0.304-3.789,1.957-4.113,4.073l-3.356,21.821
		c-0.845,5.496-8.764,5.496-9.609,0l-3.356-21.821c-0.326-2.116-1.995-3.769-4.113-4.073l-23.555-3.384
		c-5.56-0.799-5.56-8.824,0-9.624l23.555-3.384c2.118-0.304,3.789-1.957,4.113-4.073l3.356-21.821
		C45.316,220.299,53.234,220.299,54.08,225.795z"/>
	<path style="fill:#FFF5F5;" d="M115.736,323.302l3.356,21.821c0.326,2.116,1.995,3.769,4.113,4.073l23.555,3.384
		c5.56,0.799,5.56,8.824,0,9.624l-23.555,3.384c-2.118,0.304-3.789,1.957-4.113,4.073l-3.356,21.821
		c-0.845,5.496-8.764,5.496-9.609,0l-3.356-21.821c-0.326-2.116-1.995-3.769-4.113-4.073l-23.555-3.384
		c-5.56-0.799-5.56-8.824,0-9.624l23.555-3.384c2.118-0.304,3.789-1.957,4.113-4.073l3.356-21.821
		C106.971,317.806,114.89,317.806,115.736,323.302z"/>
</g>
<g>
</g>
<g>
</g>
<g>
</g>
<g>
</g>
<g>
</g>
<g>
</g>
<g>
</g>
<g>
</g>
<g>
</g>
<g>
</g>
<g>
</g>
<g>
</g>
<g>
</g>
<g>
</g>
<g>
</g>
</svg>